<?xml version="1.0" encoding="utf-8"?>
<!-- Generator: Adobe Illustrator 24.2.3, SVG Export Plug-In . SVG Version: 6.00 Build 0)  -->
<svg version="1.1" id="Layer_1" xmlns="http://www.w3.org/2000/svg" xmlns:xlink="http://www.w3.org/1999/xlink" x="0px" y="0px"
	 viewBox="0 0 1017.04 150" style="enable-background:new 0 0 1017.04 150;" xml:space="preserve">
<g>
	<path d="M56.5,33.71l21.73,4.35l4.35,17.38L69.54,68.48l-8.69,4.35l13.04,4.35l4.35,17.39l-13.04,17.38l-21.73,8.69H0l8.69-8.69
		L30.42,42.4l-8.69-8.69H56.5z M26.08,116.29h8.69l17.39-8.69l8.69-13.04L56.5,81.52l-8.69-4.35H34.77v-4.35h8.69l13.04-4.35
		l8.69-13.04V42.4l-8.69-4.35h-8.69l-4.35,4.35l-21.73,69.54L26.08,116.29z"/>
	<path d="M152.12,64.13l-21.73,47.81h4.35l21.73-21.73l4.35,4.35l-21.73,21.73l-13.04,4.35l-4.35-4.35v-8.69l-13.04,13.04h-8.69
		l-8.69-4.35L86.93,98.9l8.69-21.73l21.73-17.39l17.39,4.35l4.35,8.69l8.69-13.04L152.12,64.13z M108.66,111.94L121.7,98.9
		l13.04-17.38v-4.35l-4.35-8.69h-8.69l-13.04,13.04L99.97,98.9l4.35,13.04H108.66z"/>
	<path d="M169.51,116.29h4.35l8.69-8.69V98.9l-4.35-17.38v-8.69l4.35-8.69l17.39-4.35l13.04,4.35v13.04l-8.69,4.35l-4.35-4.35V64.13
		l-8.69,4.35v8.69l4.35,21.73v8.69l-8.69,8.69l-13.04,4.35h-8.69l-8.69-4.35v-13.04l8.69-4.35l4.35,4.35V116.29z"/>
	<path d="M243.4,33.71h-13.04v-4.35h30.42l-21.73,43.46l8.69-8.69l13.04-4.35l13.04,4.35v13.04l-21.73,34.77h4.35l21.73-21.73
		l4.35,4.35l-21.73,21.73l-8.69,4.35h-8.69l-4.35-4.35v-4.35l21.73-39.12l-4.35-4.35l-8.69,4.35L234.7,85.87l-17.39,34.77h-8.69
		l-4.35-4.35l21.73-39.12L243.4,33.71z"/>
	<path d="M352.05,64.13l-21.73,47.81h4.35l21.73-21.73l4.35,4.35l-21.73,21.73l-13.04,4.35l-4.35-4.35v-8.69l-13.04,13.04h-8.69
		l-8.69-4.35l-4.35-17.38l8.69-21.73l21.73-17.39l17.39,4.35l4.35,8.69l8.69-13.04L352.05,64.13z M308.59,111.94l13.04-13.04
		l13.04-17.38v-4.35l-4.35-8.69h-8.69l-13.04,13.04L299.9,98.9l4.35,13.04H308.59z"/>
	<path d="M360.75,85.87l21.73-21.73l13.04-4.35l4.35,4.35v4.35l-8.69,13.04h4.35l13.04-17.39l8.69-4.35l8.69,4.35l-4.35,13.04
		h-13.04l-13.04,8.69l-17.39,34.77h-8.69l-4.35-4.35l26.08-47.81h-4.35l-21.73,21.73L360.75,85.87z"/>
	<path d="M521.56,64.13l-21.73,47.81h4.35l21.73-21.73l4.35,4.35l-21.73,21.73l-13.04,4.35l-4.35-4.35v-8.69l-13.04,13.04h-8.69
		l-8.69-4.35l-4.35-17.38l8.69-21.73l21.73-17.39l17.39,4.35l4.35,8.69l8.69-13.04L521.56,64.13z M478.1,111.94l13.04-13.04
		l13.04-17.38v-4.35l-4.35-8.69h-8.69L478.1,81.52l-8.69,17.38l4.35,13.04H478.1z"/>
	<path d="M547.64,111.94l21.73-21.73l4.35,4.35l-21.73,21.73l-13.04,4.35l-8.69-4.35v-4.35l34.77-78.23h-13.04v-4.35h30.42
		l-39.12,82.58H547.64z"/>
	<path d="M604.14,85.87v8.69h-26.08v-8.69H604.14z"/>
	<path d="M638.91,120.64h-34.77l13.04-8.69l21.73-69.54l-8.69-8.69h34.77l-13.04,8.69l-21.73,69.54L638.91,120.64z"/>
	<path d="M695.41,120.64l-4.35-4.35v-8.69l-13.04,13.04h-8.69l-8.69-4.35L656.3,98.9l8.69-21.73l21.73-17.39l17.38,4.35l4.35,8.69
		l13.04-39.12h-13.04v-4.35h30.43l-39.12,82.58h4.35l21.73-21.73l4.35,4.35l-21.73,21.73l-8.69,4.35H695.41z M678.03,111.94
		l13.04-13.04l13.04-17.38v-4.35l-4.35-8.69h-8.69l-13.04,13.04l-8.69,17.38l4.35,13.04H678.03z"/>
	<path d="M730.18,85.87l21.73-21.73l13.04-4.35l4.35,4.35v4.35l-8.69,13.04h4.35l13.04-17.39l8.69-4.35l8.69,4.35l-4.35,13.04
		h-13.04l-13.04,8.69l-17.38,34.77h-8.69l-4.35-4.35l26.08-47.81h-4.35l-21.73,21.73L730.18,85.87z"/>
	<path d="M847.54,81.52l-13.04,8.69h-21.73v-4.35h13.04l8.69-4.35V68.48h-8.69l-13.04,13.04l-8.69,17.38l4.35,13.04h8.69
		l17.39-17.38l4.35,4.35l-17.39,17.38l-8.69,4.35h-8.69l-8.69-4.35l-4.35-17.38l13.04-26.08l21.73-13.04l17.38,4.35l4.35,8.69V81.52
		z"/>
	<path d="M908.39,81.52l-13.04,8.69h-21.73v-4.35h13.04l8.69-4.35V68.48h-8.69l-13.04,13.04l-8.69,17.38l4.35,13.04h8.69
		l17.39-17.38l4.35,4.35l-17.39,17.38l-8.69,4.35h-8.69l-8.69-4.35l-4.35-17.38l13.04-26.08l21.73-13.04l17.38,4.35l4.35,8.69V81.52
		z"/>
	<path d="M917.08,116.29h4.35l8.69-8.69V98.9l-4.35-17.38v-8.69l4.35-8.69l17.39-4.35l13.04,4.35v13.04l-8.69,4.35l-4.35-4.35V64.13
		l-8.69,4.35v8.69l4.35,21.73v8.69l-8.69,8.69l-13.04,4.35h-8.69l-8.69-4.35v-13.04l8.69-4.35l4.35,4.35V116.29z"/>
	<path d="M982.27,64.13l13.04-4.35l8.69,4.35v4.35l-26.08,43.46h4.35l21.73-21.73l4.35,4.35l-21.73,21.73l-8.69,4.35h-8.69
		l-4.35-4.35v-4.35l26.08-43.46h-4.35l-21.73,21.73l-4.35-4.35L982.27,64.13z M999.66,46.75V42.4l4.35-8.69h4.35l8.69,4.35v4.35
		l-4.35,8.69h-4.35L999.66,46.75z"/>
</g>
</svg>
