<?xml version="1.0" encoding="utf-8"?>
<!-- Generator: Adobe Illustrator 24.2.3, SVG Export Plug-In . SVG Version: 6.00 Build 0)  -->
<svg version="1.1" id="Layer_1" xmlns="http://www.w3.org/2000/svg" xmlns:xlink="http://www.w3.org/1999/xlink" x="0px" y="0px"
	 viewBox="0 0 1017.04 150" style="enable-background:new 0 0 1017.04 150;" xml:space="preserve">
<g>
	<polygon points="817.24,108.66 795.51,73.89 799.85,73.89 821.58,95.62 825.93,91.27 804.2,69.54 791.16,65.19 782.47,69.54 
		782.47,73.89 804.2,108.66 799.85,117.35 795.51,117.35 780.56,102.4 762.74,73.89 754.05,65.19 749.7,69.54 749.7,73.89 
		771.43,113 767.08,117.35 758.39,113 749.7,104.31 732.31,65.19 723.62,65.19 719.28,69.54 741.01,113 736.66,117.35 727.97,113 
		718.28,103.31 699.89,73.89 691.19,65.19 686.85,69.54 686.85,73.89 708.41,112.7 708.41,117.35 689.08,117.35 671.7,91.27 
		641.28,17.39 628.24,4.35 619.54,0 606.51,4.35 606.51,17.39 615.2,21.73 619.54,17.39 619.54,8.69 623.89,8.69 658.66,86.93 
		663.01,95.62 671.7,113 680.39,121.7 708.41,126.04 708.58,125.99 708.58,126.04 721.62,121.7 721.62,115.35 727.97,121.7 
		741.01,126.04 749.7,121.7 749.7,113 758.39,121.7 771.43,126.04 784.47,121.7 784.47,115 795.51,126.04 804.2,126.04 
		812.89,121.7 	"/>
	<polygon points="434.73,73.89 426.04,65.2 421.69,69.54 469.5,113 452.12,117.35 452.12,108.66 443.42,104.31 439.08,108.66 
		439.08,121.7 447.77,126.04 469.5,126.04 478.19,117.35 486.89,126.04 491.23,121.7 443.42,82.58 	"/>
	<path d="M604.18,108.66v8.69h-3.48l-17.38-26.08l-29.98-72.81l4.34-9.77h4.35v8.69l4.35,4.35l8.69-4.35V4.35L562.03,0l-8.69,4.35
		l-6.74,6.74l-6.74-6.74L531.16,0l-13.04,4.35v13.04l8.69,4.35l4.35-4.35V8.69h4.35l4.34,9.77l-14.33,34.81l-14.78-35.89L497.7,4.35
		L489,0l-13.04,4.35v13.04l8.69,4.35l4.35-4.35V8.69h4.35l26.23,59.01l-9.71,23.57l-14.65,22.48v6.15l6.15,6.15l24.59,0l24.59,0
		l6.15-6.15v-6.15l-15.53-22.48l-9.71-23.57l15.14-34.06l23.68,53.29l4.35,8.69l8.69,17.39l8.69,8.69l12.17,4.35l13.04-4.35v-13.04
		l-8.69-4.35L604.18,108.66z M528.12,86.93l4.35,8.69l8.85,21.2l-3.07,3.07l-12.29,0l-12.29,0l-3.07-3.07l7.98-21.2l4.35-8.69
		l2.61-5.86L528.12,86.93z"/>
	<polygon points="354.69,126.04 363.39,126.04 372.08,121.7 376.42,108.66 354.69,73.89 359.04,73.89 380.77,95.62 385.12,91.27 
		363.39,69.54 350.35,65.19 341.65,69.54 341.65,73.89 363.39,108.66 359.04,117.35 354.69,117.35 339.75,102.4 321.92,73.89 
		313.23,65.19 308.88,69.54 308.88,73.89 330.62,113 326.27,117.35 317.58,113 308.88,104.31 291.5,65.19 282.81,65.19 
		278.46,69.54 300.19,113 295.85,117.35 287.15,113 262.9,76.58 243.69,60.85 230.65,56.5 217.61,60.85 217.61,73.89 258.11,141.31 
		253.76,141.31 240.72,136.96 223.33,119.58 198.36,78.23 202.7,78.23 207.05,73.89 202.7,65.19 194.01,65.19 189.66,69.54 
		189.66,78.23 218.99,123.92 236.37,141.31 258.11,150 266.8,150 271.15,145.65 271.15,141.31 230.65,69.54 235,65.19 243.69,69.54 
		256.73,82.58 274.11,108.66 282.81,117.35 287.15,121.7 300.19,126.04 308.88,121.7 308.88,113 317.58,121.7 330.62,126.04 
		343.65,121.7 343.65,115 	"/>
	<polygon points="640.84,69.54 636.49,73.89 649.53,91.27 649.53,95.62 649.53,99.96 649.53,108.66 645.19,113 636.49,113 
		619.11,95.62 614.76,99.96 632.15,117.35 645.19,126.04 653.88,126.04 658.22,117.35 658.22,104.31 653.88,86.93 	"/>
	<polygon points="411.19,69.54 406.85,73.89 419.89,91.27 419.89,95.62 419.89,99.97 419.89,108.66 415.54,113 406.85,113 
		389.46,95.62 385.12,99.97 402.5,117.35 415.54,126.04 424.23,126.04 428.58,117.35 428.58,104.31 424.23,86.93 	"/>
	<polygon points="198.35,132.62 189.66,136.96 189.66,141.31 194.01,150 198.35,150 207.05,145.65 207.05,141.31 202.7,132.62 	"/>
	<polygon points="715.72,56.5 724.42,52.16 724.42,47.81 720.07,39.12 715.72,39.12 707.03,43.46 707.03,47.81 711.38,56.5 	"/>
	<polygon points="726.59,43.46 726.59,47.81 730.94,56.5 735.28,56.5 743.98,52.16 743.98,47.81 739.63,39.12 735.28,39.12 	"/>
	<polygon points="727.36,40.58 736.05,36.23 736.05,31.88 731.71,23.19 727.36,23.19 718.67,27.54 718.67,31.88 723.02,40.58 	"/>
	<polygon points="376.42,132.62 367.73,136.96 367.73,141.31 372.08,150 376.42,150 385.12,145.65 385.12,141.31 380.77,132.62 	"/>
	<polygon points="823.03,132.62 818.69,132.62 810,136.96 810,141.31 814.34,150 818.69,150 827.38,145.65 827.38,141.31 	"/>
	<polygon points="356.86,132.62 348.17,136.96 348.17,141.31 352.52,150 356.86,150 365.56,145.65 365.56,141.31 361.21,132.62 	"/>
	<polygon points="217.91,132.62 209.22,136.96 209.22,141.31 213.57,150 217.91,150 226.61,145.65 226.61,141.31 222.26,132.62 	"/>
</g>
</svg>
