<?xml version="1.0" encoding="utf-8"?>
<!-- Generator: Adobe Illustrator 24.2.3, SVG Export Plug-In . SVG Version: 6.00 Build 0)  -->
<svg version="1.1" id="Layer_1" xmlns="http://www.w3.org/2000/svg" xmlns:xlink="http://www.w3.org/1999/xlink" x="0px" y="0px"
	 viewBox="0 0 637.72 150" style="enable-background:new 0 0 637.72 150;" xml:space="preserve">
<g>
	<polygon points="627.58,108.66 605.84,73.89 610.19,73.89 631.92,95.62 636.27,91.27 614.54,69.54 601.5,65.19 592.81,69.54 
		592.81,73.89 614.54,108.66 610.19,117.35 605.84,117.35 590.9,102.4 573.08,73.89 564.38,65.19 560.04,69.54 560.04,73.89 
		581.77,113 577.42,117.35 568.73,113 560.04,104.31 542.65,65.19 533.96,65.19 529.61,69.54 551.34,113 547,117.35 538.31,113 
		528.62,103.31 510.22,73.89 501.53,65.19 497.18,69.54 497.18,73.89 518.75,112.7 518.75,117.35 499.42,117.35 482.04,91.27 
		451.61,17.39 438.57,4.35 429.88,0 416.84,4.35 416.84,17.39 425.53,21.73 429.88,17.39 429.88,8.69 434.23,8.69 469,86.93 
		473.34,95.62 482.04,113 490.73,121.7 518.75,126.04 518.92,125.99 518.92,126.04 531.95,121.7 531.95,115.35 538.31,121.7 
		551.34,126.04 560.04,121.7 560.04,113 568.73,121.7 581.77,126.04 594.81,121.7 594.81,115 605.84,126.04 614.54,126.04 
		623.23,121.7 	"/>
	<polygon points="245.07,73.89 236.38,65.2 232.03,69.54 279.84,113 262.45,117.35 262.45,108.66 253.76,104.31 249.42,108.66 
		249.42,121.7 258.11,126.04 279.84,126.04 288.53,117.35 297.23,126.04 301.57,121.7 253.76,82.58 	"/>
	<path d="M414.52,108.66v8.69h-3.48l-17.38-26.08l-29.98-72.81l4.34-9.77h4.35v8.69l4.35,4.35l8.69-4.35V4.35L372.36,0l-8.69,4.35
		l-6.74,6.74l-6.74-6.74L341.5,0l-13.04,4.35v13.04l8.69,4.35l4.35-4.35V8.69h4.35l4.34,9.77l-14.33,34.81l-14.78-35.89L308.04,4.35
		L299.34,0L286.3,4.35v13.04l8.69,4.35l4.35-4.35V8.69h4.35l26.23,59.01l-9.71,23.57l-14.65,22.48v6.15l6.15,6.15l24.59,0l24.59,0
		l6.15-6.15v-6.15L351.5,91.27l-9.71-23.57l15.14-34.06l23.68,53.29l4.35,8.69l8.69,17.39l8.69,8.69l12.17,4.35l13.04-4.35v-13.04
		l-8.69-4.35L414.52,108.66z M338.46,86.93l4.35,8.69l8.85,21.2l-3.07,3.07l-12.29,0l-12.29,0l-3.07-3.07l7.98-21.2l4.35-8.69
		l2.61-5.86L338.46,86.93z"/>
	<polygon points="165.03,126.04 173.72,126.04 182.42,121.7 186.76,108.66 165.03,73.89 169.38,73.89 191.11,95.62 195.45,91.27 
		173.72,69.54 160.68,65.19 151.99,69.54 151.99,73.89 173.72,108.66 169.38,117.35 165.03,117.35 150.08,102.4 132.26,73.89 
		123.57,65.19 119.22,69.54 119.22,73.89 140.95,113 136.61,117.35 127.91,113 119.22,104.31 101.84,65.19 93.14,65.19 88.8,69.54 
		110.53,113 106.18,117.35 97.49,113 73.23,76.58 54.03,60.85 40.99,56.5 27.95,60.85 27.95,73.89 68.44,141.31 64.1,141.31 
		51.06,136.96 33.67,119.58 8.69,78.23 13.04,78.23 17.38,73.89 13.04,65.19 4.35,65.19 0,69.54 0,78.23 29.33,123.92 46.71,141.31 
		68.44,150 77.14,150 81.48,145.65 81.48,141.31 40.99,69.54 45.33,65.19 54.03,69.54 67.07,82.58 84.45,108.66 93.14,117.35 
		97.49,121.7 110.53,126.04 119.22,121.7 119.22,113 127.91,121.7 140.95,126.04 153.99,121.7 153.99,115 	"/>
	<polygon points="451.18,69.54 446.83,73.89 459.87,91.27 459.87,95.62 459.87,99.96 459.87,108.66 455.52,113 446.83,113 
		429.44,95.62 425.1,99.96 442.48,117.35 455.52,126.04 464.22,126.04 468.56,117.35 468.56,104.31 464.22,86.93 	"/>
	<polygon points="221.53,69.54 217.19,73.89 230.22,91.27 230.22,95.62 230.22,99.97 230.22,108.66 225.88,113 217.19,113 
		199.8,95.62 195.45,99.97 212.84,117.35 225.88,126.04 234.57,126.04 238.92,117.35 238.92,104.31 234.57,86.93 	"/>
	<polygon points="8.69,132.62 0,136.96 0,141.31 4.35,150 8.69,150 17.38,145.65 17.38,141.31 13.04,132.62 	"/>
	<polygon points="526.06,56.5 534.75,52.16 534.75,47.81 530.41,39.12 526.06,39.12 517.37,43.46 517.37,47.81 521.71,56.5 	"/>
	<polygon points="536.93,43.46 536.93,47.81 541.27,56.5 545.62,56.5 554.31,52.16 554.31,47.81 549.97,39.12 545.62,39.12 	"/>
	<polygon points="537.7,40.58 546.39,36.23 546.39,31.88 542.05,23.19 537.7,23.19 529.01,27.54 529.01,31.88 533.35,40.58 	"/>
	<polygon points="186.76,132.62 178.07,136.96 178.07,141.31 182.41,150 186.76,150 195.45,145.65 195.45,141.31 191.11,132.62 	"/>
	<polygon points="633.37,132.62 629.03,132.62 620.33,136.96 620.33,141.31 624.68,150 629.03,150 637.72,145.65 637.72,141.31 	"/>
	<polygon points="167.2,132.62 158.51,136.96 158.51,141.31 162.86,150 167.2,150 175.89,145.65 175.89,141.31 171.55,132.62 	"/>
	<polygon points="28.25,132.62 19.56,136.96 19.56,141.31 23.9,150 28.25,150 36.94,145.65 36.94,141.31 32.6,132.62 	"/>
</g>
</svg>
