<?xml-stylesheet type="text/css" href="/assets/css/main.css" ?>
<svg id="svg" height="150" width="1209" viewBox="0 0 1209 150" xmlns="http://www.w3.org/2000/svg" aria-labelledby="title">
        <title id="title">Bashar al-Idreesi</title>
        <defs>
                <linearGradient id="flGradient" x1="0" y1="-5%" x2="0" y2="105%" gradientUnits="userSpaceOnUse">
                        <stop stop-color="var(--color-text)" offset="0%" />
                        <stop stop-color="var(--color-shine)" offset="50%" stop-opacity="0" id="flStop" />
                        <stop stop-color="var(--color-text)" offset="100%" />
                </linearGradient>
                <linearGradient id="stGradient" x1="0" y1="-5%" x2="0" y2="105%" gradientUnits="userSpaceOnUse">
                        <stop stop-color="transparent" offset="0%" />
                        <stop stop-color="var(--color-shine)" offset="50%" stop-opacity="0" id="stStop" />
                        <stop stop-color="transparent" offset="100%" />
                </linearGradient>
                <radialGradient id="spGradient" fx="50%" fy="50%" cx="50%" cy="50%" r="100%" gradientUnits="userSpaceOnUse">
                        <stop stop-color="var(--color-shine)" offset="0%" stop-opacity="1"/>
                        <stop stop-color="var(--color-shine)" offset="100%" stop-opacity="0" />
                </radialGradient>
                <g id="spGroup">
                        <rect id="spZone" x="0" y="50%" width="100%" height="25%" fill="transparent" stroke="transparent" />
                        <svg id="sparkle" height="100" width="100" fill-opacity="0" stroke-opacity="0" style="overflow: visible;" xmlns="http://www.w3.org/2000/svg">
                                <circle cx="0" cy="0" r="2.5" fill="url(#spGradient)" />
                                <g transform="translate(-50, -50)">
                                        <line x1="50%" y1="0" x2="50%" y2="100%" stroke="url(#spGradient)" />
                                        <line x1="0" y1="50%" x2="100%" y2="50%" stroke="url(#spGradient)" />
                                        <line x1="0" y1="0" x2="100%" y2="100%" stroke="url(#spGradient)" />
                                        <line x1="100%" y1="0" x2="0" y2="100%" stroke="url(#spGradient)" />
                                        <line x1="25%" y1="0" x2="75%" y2="100%" stroke="url(#spGradient)" style="transform: scale(0.5); transform-origin: center;" />
                                        <line x1="75%" y1="0" x2="25%" y2="100%" stroke="url(#spGradient)" style="transform: scale(0.5); transform-origin: center;" />
                                        <line x1="0" y1="25%" x2="100%" y2="75%" stroke="url(#spGradient)" style="transform: scale(0.5); transform-origin: center;" />
                                        <line x1="0" y1="75%" x2="100%" y2="25%" stroke="url(#spGradient)" style="transform: scale(0.5); transform-origin: center;" />
                                </g>
                        </svg>
                </g>
                <g id="g">
                        <circle cx="112.11" cy="144.44" r="5.56"/>
                	<circle cx="128.78" cy="144.44" r="5.56"/>
                	<circle cx="38" cy="144.44" r="5.56"/>
                	<circle cx="21.33" cy="144.44" r="5.56"/>
                	<path d="m142.67 111.11v-16.67c-2.56 6.44-9.44 11.11-16.67 11.11 0 0 5.56 0 5.56 5.56v11.11h-5.56v-33.33c-2.56 6.44-9.44 11.11-16.67 11.11 0 0 5.56 0 5.56 5.56v16.66h-5.56v-33.33c-2.55 6.44-9.44 11.11-16.66 11.11 0 0 5.56 0 5.56 5.56v16.66h-5.56v-33.33c-2.56 6.44-9.45 11.11-16.67 11.11 0 0 5.56 0 5.56 5.56v16.66h-5.56l-30.57-52.88 0.01-0.01-3.33-5.78c-0.56 4.11-2.89 8.11-6.78 10.33-8.22 4.11-10.44 14.78-6 22.78l0.56 1 0.03-0.01 14.14 24.57h-27.39c-5.56 0-5.56-5.56-5.56-5.56 0 7.22-4.67 14.11-11.11 16.67h63.23l-23.92-41.21 0.02-0.01-0.56-1c-1.44-2.67-0.78-6.33 2-7.56l0.1-0.04 28.68 49.82h73.12v-22.22z"/>
                	<path d="m142.67 116.67s5.56 0 5.56 5.56v16.66c0 3.89-3 6.89-6.89 6.89-1.67 0-3-0.44-4.22-1.33 2.22 3.33 5.89 5.56 10.11 5.56 6.67 0 12.11-5.44 12.11-12v-32.45c-2.56 6.44-9.45 11.11-16.67 11.11z"/>
                	<path d="m237.11 105.56h-61.11v-16.67c0-5.56 5.56-5.56 5.56-5.56-7.22 0-14.11-4.67-16.67-11.11v44.45h72.22c3.11 0 5.56 2.44 5.56 5.56h-77.78v27.77c2.56-6.44 9.44-11.11 16.67-11.11 0 0-5.56 0-5.56-5.56h77.78v-11.11c0-9.22-7.45-16.66-16.67-16.66z"/>
                	<path d="m276 0v106.88c-12.67 5.89-16.67 15.44-16.67 26.44 6.33 5 10.89 10.56 13.89 16.67 3-6.11 7.56-11.67 13.89-16.67 0-6.11-1.22-11.67-4.44-16.44-4.11 2.33-7 4.44-8.78 6.44 1.33 1.78 2.11 3.67 2.11 5.67 0 0.67-0.22 1.22-0.56 1.67-0.44 0.67-1.33 1.11-2.22 1.11s-1.78-0.44-2.22-1.11c-0.33-0.44-0.56-1-0.56-1.67 0-6.44 7.33-11 16.67-15.67v-91.1c0-5.44 5.22-5.56 5.56-5.56-7.23-3.33-13.34-9.1-16.67-16.66z"/>
                	<path d="m259.33 24.44v88.89c1.44 0.67 2.78 1.33 4.11 2.11 2.11-3 5-5.56 8.67-7.78-0.56-0.22-1.11-0.56-1.67-0.78v-106.88c-3.33 7.56-9.44 13.33-16.67 16.67 0.33 0 5.56 0.11 5.56 5.56v2.21z"/>
                	<path d="m292.67 0v133.34h11.11v-111.12c0-5.44 5.22-5.56 5.56-5.56-7.23-3.33-13.34-9.1-16.67-16.66z"/>
                	<path d="m320.44 116.67s5.56 0 5.56 5.56v16.66c0 3.89-3 6.89-6.89 6.89-1.67 0-3-0.44-4.22-1.33 2.22 3.33 5.89 5.56 10.11 5.56 6.67 0 12.11-5.44 12.11-12v-32.45c-2.55 6.44-9.44 11.11-16.67 11.11z"/>
                	<circle cx="381.56" cy="63" r="5.56"/>
                	<circle cx="389.89" cy="77.78" r="5.56"/>
                	<circle cx="373.22" cy="77.78" r="5.56"/>
                	<circle cx="414.89" cy="144.44" r="5.56"/>
                	<path d="m403.78 105.56s5.56 0 5.56 5.56v11.11h-5.56v-33.34c-2.56 6.44-9.44 11.11-16.67 11.11 0 0 5.56 0 5.56 5.56v16.66h-5.56v-33.33c-2.56 6.44-9.44 11.11-16.67 11.11 0 0 5.56 0 5.56 5.56v16.66h-5.56v-33.33c-2.55 6.44-9.44 11.11-16.66 11.11 0 0 5.56 0 5.56 5.56v16.66h-5.56v-100c0-5.44 5.22-5.56 5.56-5.56-7.23-3.33-13.34-9.1-16.67-16.66v133.33h77.79v-38.89c-2.57 6.45-9.46 11.12-16.68 11.12z"/>
                </g>
        </defs>
        <use href="#g" fill="var(--color-text)" vector-effect="non-scaling-stroke" />
        <use href="#g" fill="url(#flGradient)" stroke="url(#stGradient)" vector-effect="non-scaling-stroke" />
        <use href="#spGroup" vector-effect="non-scaling-stroke" />
</svg>
