<?xml version="1.0" encoding="utf-8"?>
<!-- Generator: Adobe Illustrator 24.2.3, SVG Export Plug-In . SVG Version: 6.00 Build 0)  -->
<svg version="1.1" id="Layer_1" xmlns="http://www.w3.org/2000/svg" xmlns:xlink="http://www.w3.org/1999/xlink" x="0px" y="0px"
	 viewBox="0 0 1209 150" style="enable-background:new 0 0 1209 150;" xml:space="preserve">
<g>
	<circle cx="506.39" cy="144.44" r="5.56"/>
	<circle cx="523.06" cy="144.44" r="5.56"/>
	<circle cx="432.28" cy="144.44" r="5.56"/>
	<circle cx="415.61" cy="144.44" r="5.56"/>
	<path d="M536.94,94.44c-2.56,6.44-9.44,11.11-16.67,11.11c0,0,5.56,0,5.56,5.56v11.11h-5.56V88.89
		c-2.56,6.44-9.44,11.11-16.67,11.11c0,0,5.56,0,5.56,5.56v16.67h-5.56V88.89c-2.56,6.44-9.44,11.11-16.67,11.11
		c0,0,5.56,0,5.56,5.56v16.67h-5.56V88.89c-2.56,6.44-9.44,11.11-16.67,11.11c0,0,5.56,0,5.56,5.56v16.67h-5.56l-33.89-58.67
		c-0.56,4.11-2.89,8.11-6.78,10.33c-8.22,4.11-10.44,14.78-6,22.78l14.72,25.56h-27.38c-5.56,0-5.56-5.56-5.56-5.56
		c0,7.22-4.67,14.11-11.11,16.67h63.22l-24.44-42.22c-1.44-2.67-0.78-6.33,2-7.56l0.1-0.04l28.68,49.82h73.11V94.44z"/>
	<path d="M536.94,116.67c0,0,5.56,0,5.56,5.56v16.67c0,3.89-3,6.89-6.89,6.89c-1.67,0-3-0.44-4.22-1.33
		c2.22,3.33,5.89,5.56,10.11,5.56c6.67,0,12.11-5.44,12.11-12v-32.44C551.06,112,544.17,116.67,536.94,116.67z"/>
	<path d="M631.39,105.56h-61.11V88.89c0-5.56,5.56-5.56,5.56-5.56c-7.22,0-14.11-4.67-16.67-11.11v44.44h72.22
		c3.11,0,5.56,2.44,5.56,5.56h-77.78V150c2.56-6.44,9.44-11.11,16.67-11.11c0,0-5.56,0-5.56-5.56h77.78v-11.11
		C648.06,113,640.61,105.56,631.39,105.56z"/>
	<path d="M670.28,0v106.89c-12.67,5.89-16.67,15.44-16.67,26.44c6.33,5,10.89,10.56,13.89,16.67c3-6.11,7.56-11.67,13.89-16.67
		c0-6.11-1.22-11.67-4.44-16.44c-4.11,2.33-7,4.44-8.78,6.44c1.33,1.78,2.11,3.67,2.11,5.67c0,0.67-0.22,1.22-0.56,1.67
		c-0.44,0.67-1.33,1.11-2.22,1.11s-1.78-0.44-2.22-1.11c-0.33-0.44-0.56-1-0.56-1.67c0-6.44,7.33-11,16.67-15.67V22.22
		c0-5.44,5.22-5.56,5.56-5.56C679.72,13.33,673.61,7.56,670.28,0z"/>
	<path d="M653.61,113.33c1.44,0.67,2.78,1.33,4.11,2.11c2.11-3,5-5.56,8.67-7.78c-0.56-0.22-1.11-0.56-1.67-0.78V0
		c-3.33,7.56-9.44,13.33-16.67,16.67c0.33,0,5.56,0.11,5.56,5.56V113.33z"/>
	<path d="M686.94,0v16.67v116.67h11.11V22.22c0-5.44,5.22-5.56,5.56-5.56C696.39,13.33,690.28,7.56,686.94,0z"/>
	<path d="M714.72,116.67c0,0,5.56,0,5.56,5.56v16.67c0,3.89-3,6.89-6.89,6.89c-1.67,0-3-0.44-4.22-1.33
		c2.22,3.33,5.89,5.56,10.11,5.56c6.67,0,12.11-5.44,12.11-12v-32.44C728.83,112,721.94,116.67,714.72,116.67z"/>
	<circle cx="775.83" cy="63" r="5.56"/>
	<circle cx="784.17" cy="77.78" r="5.56"/>
	<circle cx="767.5" cy="77.78" r="5.56"/>
	<circle cx="809.17" cy="144.44" r="5.56"/>
	<path d="M798.06,105.56c0,0,5.56,0,5.56,5.56v11.11h-5.56V88.89c-2.56,6.44-9.44,11.11-16.67,11.11c0,0,5.56,0,5.56,5.56v16.67
		h-5.56V88.89c-2.56,6.44-9.44,11.11-16.67,11.11c0,0,5.56,0,5.56,5.56v16.67h-5.56V88.89c-2.56,6.44-9.44,11.11-16.67,11.11
		c0,0,5.56,0,5.56,5.56v16.67h-5.56v-100c0-5.44,5.22-5.56,5.56-5.56c-7.22-3.33-13.33-9.11-16.67-16.67v133.33h77.78V94.44
		C812.17,100.89,805.28,105.56,798.06,105.56z"/>
</g>
</svg>
